<svg width="831" height="830" viewBox="0 0 831 830" fill="none" xmlns="http://www.w3.org/2000/svg">
<ellipse cx="415.5" cy="415.138" rx="415.5" ry="414.848" fill="#FE5244"/>
<mask id="path-2-inside-1" fill="white">
<path d="M417.916 815.924C312.203 815.924 210.82 774.192 136.07 699.909C61.3196 625.626 19.3254 524.877 19.3254 419.825C19.3254 314.774 61.3196 214.024 136.07 139.742C210.82 65.4587 312.203 23.727 417.916 23.7271L417.916 419.825L417.916 815.924Z"/>
</mask>
<path d="M417.916 815.924C312.203 815.924 210.82 774.192 136.07 699.909C61.3196 625.626 19.3254 524.877 19.3254 419.825C19.3254 314.774 61.3196 214.024 136.07 139.742C210.82 65.4587 312.203 23.727 417.916 23.7271L417.916 419.825L417.916 815.924Z" fill="white" stroke="#FE5244" stroke-width="2" mask="url(#path-2-inside-1)"/>
<g clip-path="url(#clip0)">
<path d="M200.479 591.7L207.347 591.633C214.432 591.564 220.105 584.765 220.018 576.445C219.932 568.128 214.12 561.437 207.035 561.506L200.167 561.573C190.747 561.665 181.851 557.444 175.109 549.691C168.367 541.934 164.592 531.571 164.477 520.512C164.24 497.678 179.868 478.949 199.309 478.76L261.137 478.157C268.218 478.088 273.894 471.288 273.808 462.968C273.722 454.648 267.906 447.961 260.825 448.03L198.997 448.633C165.409 448.96 138.414 481.315 138.823 520.763C139.021 539.866 145.544 557.771 157.191 571.169C168.832 584.571 184.208 591.859 200.479 591.7V591.7Z" fill="#FE5244"/>
<path d="M223.378 448.395L409.222 446.582L412.148 728.952C300.973 730.037 209.477 629.247 208.182 504.275L207.789 466.281C207.687 456.491 214.67 448.48 223.378 448.395Z" fill="#FE5244"/>
<path d="M488.547 225.889C488.547 225.889 488.307 226.717 487.952 228.371C487.713 229.199 487.598 230.163 487.238 231.267C487.001 232.37 486.643 233.749 486.41 235.127C485.819 238.022 485.111 241.468 484.407 245.327C483.702 249.186 483.002 253.457 482.431 258.14C481.286 267.368 480.771 277.553 481.374 287.865C481.675 292.952 482.349 298.173 483.272 303.392C484.194 308.61 485.487 313.688 487.028 318.763L487.544 320.684L488.314 323.152C488.826 324.661 489.213 326.17 489.728 327.953C490.756 331.383 491.534 334.677 492.314 338.108C493.872 344.834 494.934 351.564 495.624 358.299C497.003 371.629 496.519 384.841 493.905 395.871C492.597 401.387 490.913 406.356 488.847 410.503C486.781 414.65 484.335 417.976 482.003 420.337C480.898 421.448 479.668 422.423 478.681 422.983C477.696 423.681 476.708 424.103 475.967 424.385C475.226 424.668 474.607 424.811 474.236 424.953C473.865 425.094 473.617 425.096 473.617 425.096C473.617 425.096 473.74 424.957 473.86 424.544C474.104 424.129 474.346 423.576 474.587 422.886C474.707 422.472 474.826 422.058 474.946 421.644C475.066 421.23 475.184 420.679 475.302 420.127C475.421 419.576 475.539 419.024 475.658 418.473C475.776 417.922 475.893 417.233 475.886 416.545C475.995 415.168 476.104 413.654 476.088 412.141C476.071 410.49 476.054 408.839 475.787 407.054C475.502 403.48 474.839 399.359 473.927 395.103C472.101 386.454 469.143 376.303 465.807 365.605C464.139 360.256 462.22 354.635 460.301 349.013C459.403 346.133 458.383 343.392 457.485 340.512C456.973 339.003 456.461 337.495 455.949 335.987L455.182 333.793L454.286 331.051C451.976 323.644 450.532 315.955 449.956 308.256C449.38 300.558 449.673 292.852 450.715 285.688C451.757 278.524 453.671 271.765 455.966 265.827C458.262 259.889 460.935 254.498 463.864 249.929C466.67 245.362 469.732 241.618 472.552 238.427C473.287 237.594 473.9 236.9 474.637 236.205C475.374 235.51 475.987 234.816 476.726 234.259C478.077 233.007 479.306 231.895 480.414 231.059C481.52 230.085 482.629 229.386 483.614 228.689C484.599 227.991 485.339 227.571 486.079 227.152C487.681 226.173 488.547 225.889 488.547 225.889Z" fill="white"/>
<path d="M426.542 728.814C455.326 728.667 483.781 721.238 510.282 706.952C536.784 692.667 560.813 671.804 580.998 645.556C601.183 619.307 617.128 588.187 627.924 553.972C638.719 519.756 644.154 483.116 643.916 446.143L424.734 447.268L426.542 728.814Z" fill="white"/>
</g>
<path d="M398.551 146.777C398.551 146.777 398.315 147.995 397.718 150.162C397.481 151.245 397.123 152.599 396.767 154.223C396.412 155.847 396.058 157.606 395.583 159.637C394.756 163.562 393.69 168.434 392.752 173.711C391.814 178.987 390.884 184.939 390.082 191.295C388.475 203.871 387.629 217.926 388.644 232.097C389.089 239.116 389.907 246.266 391.221 253.411C392.536 260.557 394.345 267.562 396.526 274.564L397.298 277.258L398.325 280.624C399.092 282.778 399.609 284.799 400.378 287.222C401.791 291.936 402.955 296.516 403.995 301.098C406.2 310.396 407.785 319.7 408.748 328.874C410.675 347.224 409.993 365.194 406.43 380.49C404.648 388.071 402.239 394.983 399.321 400.684C396.403 406.385 392.978 411.01 389.786 414.148C388.19 415.784 386.59 417.015 385.111 417.84C383.632 418.8 382.397 419.352 381.285 419.768C380.297 420.183 379.432 420.461 378.812 420.467C378.317 420.607 377.945 420.611 377.945 420.611C377.945 420.611 378.066 420.34 378.309 419.797C378.551 419.254 378.915 418.44 379.277 417.491C379.52 416.949 379.638 416.407 379.879 415.73C380.12 415.052 380.239 414.511 380.478 413.698C380.595 413.022 380.835 412.209 380.951 411.397C381.066 410.586 381.306 409.773 381.296 408.828C381.525 406.935 381.628 404.908 381.605 402.747C381.581 400.451 381.434 398.157 381.284 395.727C380.861 390.734 379.935 385.206 378.633 379.276C376.028 367.281 371.917 353.545 367.174 338.734C364.74 331.33 362.18 323.656 359.495 315.849C358.214 311.944 356.809 308.041 355.528 304.137C354.763 302.119 354.122 300.099 353.355 297.946L352.332 294.984L351.177 291.214C347.971 281.115 345.876 270.466 345.022 259.805C344.167 249.143 344.678 238.603 346.188 228.729C347.698 218.855 350.208 209.647 353.471 201.376C356.61 193.107 360.505 185.911 364.409 179.66C368.438 173.408 372.6 168.1 376.525 163.874C377.506 162.784 378.489 161.829 379.471 160.874C380.454 159.919 381.312 158.966 382.296 158.146C384.139 156.507 385.86 155.004 387.46 153.773C389.06 152.542 390.537 151.447 391.891 150.489C393.246 149.53 394.355 148.844 395.342 148.294C397.439 147.193 398.551 146.777 398.551 146.777Z" fill="#FE5244"/>
<path d="M365.555 140.072C365.554 148.948 358.042 156.144 348.776 156.145C339.511 156.146 332.001 148.952 332.002 140.076C332.003 131.2 339.515 124.003 348.781 124.002C358.046 124.001 365.556 131.196 365.555 140.072Z" fill="#FE5244"/>
<path d="M470.933 207.961C470.932 216.837 463.42 224.033 454.155 224.034C444.889 224.035 437.379 216.841 437.38 207.965C437.382 199.089 444.894 191.892 454.159 191.891C463.424 191.89 470.934 199.085 470.933 207.961Z" fill="white"/>
<line x1="415.45" y1="6.33815e-08" x2="415.45" y2="100" stroke="white" stroke-width="2.9"/>
<path d="M415.5 769.062L415.5 830" stroke="white" stroke-width="2.8"/>
<defs>
<clipPath id="clip0">
<rect width="545.783" height="676.451" fill="white" transform="matrix(-0.999952 0.00975282 0.0103605 0.999946 680.757 146.475)"/>
</clipPath>
</defs>
</svg>
